{
  "accessors": [
    {
      "bufferView": 2,
      "componentType": 5126,
      "count": 4612,
      "max": [
        -10.032194137573242,
        6.7172098159790039,
        29.378582000732422
      ],
      "min": [
        -20.426183700561523,
        -2.7098770141601562,
        1.0238200426101685
      ],
      "type": "VEC3"
    },
    {
      "bufferView": 2,
      "byteOffset": 55344,
      "componentType": 5126,
      "count": 4612,
      "max": [
        0.99516302347183228,
        0.99508422613143921,
        0.81841599941253662
      ],
      "min": [
        -0.99370771646499634,
        -0.99508422613143921,
        -0.99821650981903076
      ],
      "type": "VEC3"
    },
    {
      "bufferView": 3,
      "componentType": 5126,
      "count": 4612,
      "max": [
        0.99916845560073853,
        0.99953079223632812,
        0.59109413623809814,
        1
      ],
      "min": [
        -0.99917036294937134,
        -0.99944007396697998,
        -0.70815598964691162,
        -1
      ],
      "type": "VEC4"
    },
    {
      "bufferView": 1,
      "componentType": 5126,
      "count": 4612,
      "max": [
        1,
        1
      ],
      "min": [
        0,
        0.0099999997764825821
      ],
      "type": "VEC2"
    },
    {
      "bufferView": 0,
      "componentType": 5125,
      "count": 25716,
      "max": [
        4611
      ],
      "min": [
        0
      ],
      "type": "SCALAR"
    },
    {
      "bufferView": 2,
      "byteOffset": 110688,
      "componentType": 5126,
      "count": 896,
      "max": [
        -11.932076454162598,
        3.6473510265350342,
        30.177524566650391
      ],
      "min": [
        -16.059291839599609,
        -0.41531699895858765,
        28.057281494140625
      ],
      "type": "VEC3"
    },
    {
      "bufferView": 2,
      "byteOffset": 121440,
      "componentType": 5126,
      "count": 896,
      "max": [
        0.99370771646499634,
        0.99452131986618042,
        0.99821650981903076
      ],
      "min": [
        -0.99516266584396362,
        -0.99145710468292236,
        -0.9998856782913208
      ],
      "type": "VEC3"
    },
    {
      "bufferView": 3,
      "byteOffset": 73792,
      "componentType": 5126,
      "count": 896,
      "max": [
        0.99862974882125854,
        0.99939227104187012,
        0.99993526935577393,
        1
      ],
      "min": [
        -0.9990348219871521,
        -0.99862909317016602,
        -0.9996224045753479,
        -1
      ],
      "type": "VEC4"
    },
    {
      "bufferView": 1,
      "byteOffset": 36896,
      "componentType": 5126,
      "count": 896,
      "max": [
        0.49047398567199707,
        0.49047398567199707
      ],
      "min": [
        0.0095260003581643105,
        0.0095260003581643105
      ],
      "type": "VEC2"
    },
    {
      "bufferView": 0,
      "byteOffset": 102864,
      "componentType": 5125,
      "count": 5172,
      "max": [
        895
      ],
      "min": [
        0
      ],
      "type": "SCALAR"
    }
  ],
  "asset": {
    "extras": {
      "author": "Jeremy E. Grayson (https://sketchfab.com/JeremyGrayson)",
      "license": "CC-BY-4.0 (http://creativecommons.org/licenses/by/4.0/)",
      "source": "https://sketchfab.com/3d-models/plastic-water-bottle-efa1c4c1f2a947659ded2e61e20eff31",
      "title": "Plastic Water Bottle"
    },
    "generator": "Sketchfab-5.47.0",
    "version": "2.0"
  },
  "bufferViews": [
    {
      "buffer": 0,
      "byteLength": 123552,
      "byteOffset": 0,
      "name": "floatBufferViews",
      "target": 34963
    },
    {
      "buffer": 0,
      "byteLength": 44064,
      "byteOffset": 123552,
      "byteStride": 8,
      "name": "floatBufferViews",
      "target": 34962
    },
    {
      "buffer": 0,
      "byteLength": 132192,
      "byteOffset": 167616,
      "byteStride": 12,
      "name": "floatBufferViews",
      "target": 34962
    },
    {
      "buffer": 0,
      "byteLength": 88128,
      "byteOffset": 299808,
      "byteStride": 16,
      "name": "floatBufferViews",
      "target": 34962
    }
  ],
  "buffers": [
    {
      "byteLength": 387936,
      "uri": "scene.bin"
    }
  ],
  "materials": [
    {
      "alphaMode": "BLEND",
      "doubleSided": true,
      "emissiveFactor": [
        0.0171493902,
        0.0171493902,
        0.0171493902
      ],
      "name": "Material.023",
      "pbrMetallicRoughness": {
        "baseColorFactor": [
          1,
          1,
          1,
          0.020007621999999999
        ],
        "metallicFactor": 0.27610518290000002,
        "roughnessFactor": 0
      }
    },
    {
      "doubleSided": true,
      "name": "Material.024",
      "pbrMetallicRoughness": {
        "baseColorFactor": [
          0.0474275319,
          0.34603240790000001,
          0.4219779078,
          1
        ],
        "metallicFactor": 0,
        "roughnessFactor": 0.46512957319999998
      }
    }
  ],
  "meshes": [
    {
      "primitives": [
        {
          "attributes": {
            "NORMAL": 1,
            "POSITION": 0,
            "TANGENT": 2,
            "TEXCOORD_0": 3
          },
          "indices": 4,
          "material": 0,
          "mode": 4
        }
      ]
    },
    {
      "primitives": [
        {
          "attributes": {
            "NORMAL": 6,
            "POSITION": 5,
            "TANGENT": 7,
            "TEXCOORD_0": 8
          },
          "indices": 9,
          "material": 1,
          "mode": 4
        }
      ]
    }
  ],
  "nodes": [
    {
      "children": [
        1
      ],
      "name": "RootNode (gltf orientation matrix)",
      "rotation": [
        -0.70710678118654746,
        -0,
        -0,
        0.70710678118654757
      ]
    },
    {
      "children": [
        2
      ],
      "name": "RootNode (model correction matrix)"
    },
    {
      "children": [
        3,
        4
      ],
      "name": "Waterbottle.obj.cleaner.materialmerger.gles"
    },
    {
      "mesh": 0,
      "name": ""
    },
    {
      "mesh": 1,
      "name": ""
    }
  ],
  "scene": 0,
  "scenes": [
    {
      "name": "OSG_Scene",
      "nodes": [
        0
      ]
    }
  ]
}

