{
  "accessors": [
    {
      "bufferView": 1,
      "componentType": 5126,
      "count": 65532,
      "max": [
        2.829824686050415,
        0.50051236152648926,
        3.2261223793029785
      ],
      "min": [
        -0.23219203948974609,
        -0.50051248073577881,
        1.3718463182449341
      ],
      "type": "VEC3"
    },
    {
      "bufferView": 1,
      "byteOffset": 786384,
      "componentType": 5126,
      "count": 65532,
      "max": [
        0.39517343044281006,
        1,
        0.9823153018951416
      ],
      "min": [
        -0.99903726577758789,
        -1,
        -0.96430748701095581
      ],
      "type": "VEC3"
    },
    {
      "bufferView": 2,
      "componentType": 5126,
      "count": 65532,
      "max": [
        1,
        1,
        1,
        1
      ],
      "min": [
        0.25098040699958801,
        0.039215687662363052,
        0,
        1
      ],
      "type": "VEC4"
    },
    {
      "bufferView": 0,
      "componentType": 5125,
      "count": 384486,
      "max": [
        65531
      ],
      "min": [
        0
      ],
      "type": "SCALAR"
    },
    {
      "bufferView": 1,
      "byteOffset": 1572768,
      "componentType": 5126,
      "count": 65532,
      "max": [
        2.8298249244689941,
        0.50051230192184448,
        3.2261221408843994
      ],
      "min": [
        -0.23104870319366455,
        -0.50051212310791016,
        1.3718459606170654
      ],
      "type": "VEC3"
    },
    {
      "bufferView": 1,
      "byteOffset": 2359152,
      "componentType": 5126,
      "count": 65532,
      "max": [
        0.39517319202423096,
        1,
        0.98230588436126709
      ],
      "min": [
        -0.93858778476715088,
        -1,
        -0.9823157787322998
      ],
      "type": "VEC3"
    },
    {
      "bufferView": 2,
      "byteOffset": 1048512,
      "componentType": 5126,
      "count": 65532,
      "max": [
        1,
        1,
        1,
        1
      ],
      "min": [
        0.25098040699958801,
        0.039215687662363052,
        0,
        1
      ],
      "type": "VEC4"
    },
    {
      "bufferView": 0,
      "byteOffset": 1537944,
      "componentType": 5125,
      "count": 385233,
      "max": [
        65531
      ],
      "min": [
        0
      ],
      "type": "SCALAR"
    },
    {
      "bufferView": 1,
      "byteOffset": 3145536,
      "componentType": 5126,
      "count": 20076,
      "max": [
        2.8298249244689941,
        0.50051242113113403,
        3.1046690940856934
      ],
      "min": [
        -0.62565088272094727,
        -0.50051224231719971,
        1.3718459606170654
      ],
      "type": "VEC3"
    },
    {
      "bufferView": 1,
      "byteOffset": 3386448,
      "componentType": 5126,
      "count": 20076,
      "max": [
        0.99903756380081177,
        1,
        0.99828696250915527
      ],
      "min": [
        -0.96440887451171875,
        -1,
        -0.9942290186882019
      ],
      "type": "VEC3"
    },
    {
      "bufferView": 2,
      "byteOffset": 2097024,
      "componentType": 5126,
      "count": 20076,
      "max": [
        1,
        1,
        1,
        1
      ],
      "min": [
        0.12941177189350128,
        0.039215687662363052,
        0,
        1
      ],
      "type": "VEC4"
    },
    {
      "bufferView": 0,
      "byteOffset": 3078876,
      "componentType": 5125,
      "count": 114645,
      "max": [
        20075
      ],
      "min": [
        0
      ],
      "type": "SCALAR"
    },
    {
      "bufferView": 1,
      "byteOffset": 3627360,
      "componentType": 5126,
      "count": 65532,
      "max": [
        -0.69466280937194824,
        0.29654911160469055,
        0.86197960376739502
      ],
      "min": [
        -1.2881293296813965,
        -0.29654911160469055,
        -0.0050647901371121407
      ],
      "type": "VEC3"
    },
    {
      "bufferView": 1,
      "byteOffset": 4413744,
      "componentType": 5126,
      "count": 65532,
      "max": [
        0.99472248554229736,
        0.99482583999633789,
        1
      ],
      "min": [
        -0.99467068910598755,
        -0.99484223127365112,
        -1
      ],
      "type": "VEC3"
    },
    {
      "bufferView": 2,
      "byteOffset": 2418240,
      "componentType": 5126,
      "count": 65532,
      "max": [
        0.33725491166114807,
        0.5215686559677124,
        1,
        1
      ],
      "min": [
        0.33725491166114807,
        0.5215686559677124,
        1,
        1
      ],
      "type": "VEC4"
    },
    {
      "bufferView": 0,
      "byteOffset": 3537456,
      "componentType": 5125,
      "count": 387156,
      "max": [
        65531
      ],
      "min": [
        0
      ],
      "type": "SCALAR"
    },
    {
      "bufferView": 1,
      "byteOffset": 5200128,
      "componentType": 5126,
      "count": 65532,
      "max": [
        0.076716154813766479,
        0.49673020839691162,
        3.2203352451324463
      ],
      "min": [
        -1.2881293296813965,
        -0.4999537467956543,
        -0.0048377201892435551
      ],
      "type": "VEC3"
    },
    {
      "bufferView": 1,
      "byteOffset": 5986512,
      "componentType": 5126,
      "count": 65532,
      "max": [
        0.99892520904541016,
        0.99564927816390991,
        1
      ],
      "min": [
        -0.99500554800033569,
        -1,
        -1
      ],
      "type": "VEC3"
    },
    {
      "bufferView": 2,
      "byteOffset": 3466752,
      "componentType": 5126,
      "count": 65532,
      "max": [
        1,
        0.7764706015586853,
        1,
        1
      ],
      "min": [
        0.33725491166114807,
        0.36078432202339172,
        0,
        1
      ],
      "type": "VEC4"
    },
    {
      "bufferView": 0,
      "byteOffset": 5086080,
      "componentType": 5125,
      "count": 379374,
      "max": [
        65531
      ],
      "min": [
        0
      ],
      "type": "SCALAR"
    },
    {
      "bufferView": 1,
      "byteOffset": 6772896,
      "componentType": 5126,
      "count": 65532,
      "max": [
        0.077680259943008423,
        0.5000835657119751,
        3.2203352451324463
      ],
      "min": [
        -0.52899491786956787,
        -0.50002455711364746,
        2.283332347869873
      ],
      "type": "VEC3"
    },
    {
      "bufferView": 1,
      "byteOffset": 7559280,
      "componentType": 5126,
      "count": 65532,
      "max": [
        0.99972808361053467,
        1,
        0.99998164176940918
      ],
      "min": [
        -0.99960947036743164,
        -1,
        -0.99386239051818848
      ],
      "type": "VEC3"
    },
    {
      "bufferView": 2,
      "byteOffset": 4515264,
      "componentType": 5126,
      "count": 65532,
      "max": [
        1,
        1,
        1,
        1
      ],
      "min": [
        1,
        0.36078432202339172,
        0,
        1
      ],
      "type": "VEC4"
    },
    {
      "bufferView": 0,
      "byteOffset": 6603576,
      "componentType": 5125,
      "count": 379830,
      "max": [
        65531
      ],
      "min": [
        0
      ],
      "type": "SCALAR"
    },
    {
      "bufferView": 1,
      "byteOffset": 8345664,
      "componentType": 5126,
      "count": 65532,
      "max": [
        -0.28916522860527039,
        0.16033527255058289,
        2.7278335094451904
      ],
      "min": [
        -0.52899491786956787,
        -0.15503829717636108,
        2.391728401184082
      ],
      "type": "VEC3"
    },
    {
      "bufferView": 1,
      "byteOffset": 9132048,
      "componentType": 5126,
      "count": 65532,
      "max": [
        0.99987292289733887,
        1,
        0.99983054399490356
      ],
      "min": [
        -0.9999537467956543,
        -1,
        -0.99999427795410156
      ],
      "type": "VEC3"
    },
    {
      "bufferView": 2,
      "byteOffset": 5563776,
      "componentType": 5126,
      "count": 65532,
      "max": [
        1,
        1,
        1,
        1
      ],
      "min": [
        1,
        1,
        1,
        1
      ],
      "type": "VEC4"
    },
    {
      "bufferView": 0,
      "byteOffset": 8122896,
      "componentType": 5125,
      "count": 372615,
      "max": [
        65531
      ],
      "min": [
        0
      ],
      "type": "SCALAR"
    },
    {
      "bufferView": 1,
      "byteOffset": 9918432,
      "componentType": 5126,
      "count": 9320,
      "max": [
        0.076182961463928223,
        0.5000835657119751,
        3.2201707363128662
      ],
      "min": [
        -1.285033106803894,
        -0.50002455711364746,
        0.49906405806541443
      ],
      "type": "VEC3"
    },
    {
      "bufferView": 1,
      "byteOffset": 10030272,
      "componentType": 5126,
      "count": 9320,
      "max": [
        0.98856383562088013,
        0.99998408555984497,
        1
      ],
      "min": [
        -0.99547344446182251,
        -1,
        -1
      ],
      "type": "VEC3"
    },
    {
      "bufferView": 2,
      "byteOffset": 6612288,
      "componentType": 5126,
      "count": 9320,
      "max": [
        1,
        1,
        1,
        1
      ],
      "min": [
        0.33725491166114807,
        0.36078432202339172,
        0,
        1
      ],
      "type": "VEC4"
    },
    {
      "bufferView": 0,
      "byteOffset": 9613356,
      "componentType": 5125,
      "count": 28467,
      "max": [
        9319
      ],
      "min": [
        0
      ],
      "type": "SCALAR"
    },
    {
      "bufferView": 1,
      "byteOffset": 10142112,
      "componentType": 5126,
      "count": 4356,
      "max": [
        4.1114187240600586,
        4.1114187240600586,
        0
      ],
      "min": [
        -4.1114187240600586,
        -4.1114187240600586,
        0
      ],
      "type": "VEC3"
    },
    {
      "bufferView": 1,
      "byteOffset": 10194384,
      "componentType": 5126,
      "count": 4356,
      "max": [
        0,
        0,
        1
      ],
      "min": [
        0,
        0,
        0.99999994039535522
      ],
      "type": "VEC3"
    },
    {
      "bufferView": 2,
      "byteOffset": 6761408,
      "componentType": 5126,
      "count": 4356,
      "max": [
        1,
        1,
        1,
        1
      ],
      "min": [
        1,
        1,
        1,
        1
      ],
      "type": "VEC4"
    },
    {
      "bufferView": 0,
      "byteOffset": 9727224,
      "componentType": 5125,
      "count": 25350,
      "max": [
        4355
      ],
      "min": [
        0
      ],
      "type": "SCALAR"
    },
    {
      "bufferView": 1,
      "byteOffset": 10246656,
      "componentType": 5126,
      "count": 6555,
      "max": [
        -0.328166663646698,
        0.061440479010343552,
        2.5700318813323975
      ],
      "min": [
        -1.1956140995025635,
        -0.17327843606472015,
        0.41560494899749756
      ],
      "type": "VEC3"
    },
    {
      "bufferView": 1,
      "byteOffset": 10325316,
      "componentType": 5126,
      "count": 6555,
      "max": [
        0.99982911348342896,
        0.99994808435440063,
        0.99905151128768921
      ],
      "min": [
        -0.99995869398117065,
        -0.99987608194351196,
        -0.99842768907546997
      ],
      "type": "VEC3"
    },
    {
      "bufferView": 2,
      "byteOffset": 6831104,
      "componentType": 5126,
      "count": 6555,
      "max": [
        0.52549022436141968,
        0.7764706015586853,
        0.13725490868091583,
        1
      ],
      "min": [
        0.52549022436141968,
        0.7764706015586853,
        0.13725490868091583,
        1
      ],
      "type": "VEC4"
    },
    {
      "bufferView": 0,
      "byteOffset": 9828624,
      "componentType": 5125,
      "count": 36864,
      "max": [
        6554
      ],
      "min": [
        0
      ],
      "type": "SCALAR"
    }
  ],
  "asset": {
    "extras": {
      "author": "Rei137 (https://sketchfab.com/Rei137)",
      "license": "CC-BY-4.0 (http://creativecommons.org/licenses/by/4.0/)",
      "source": "https://sketchfab.com/3d-models/mageu-milk-carton-da0c90a555074706a7733bba724aff7c",
      "title": "Mageu - Milk Carton"
    },
    "generator": "Sketchfab-10.29.0",
    "version": "2.0"
  },
  "bufferViews": [
    {
      "buffer": 0,
      "byteLength": 9976080,
      "byteOffset": 0,
      "name": "floatBufferViews",
      "target": 34963
    },
    {
      "buffer": 0,
      "byteLength": 10403976,
      "byteOffset": 9976080,
      "byteStride": 12,
      "name": "floatBufferViews",
      "target": 34962
    },
    {
      "buffer": 0,
      "byteLength": 6935984,
      "byteOffset": 20380056,
      "byteStride": 16,
      "name": "floatBufferViews",
      "target": 34962
    }
  ],
  "buffers": [
    {
      "byteLength": 27316040,
      "uri": "scene.bin"
    }
  ],
  "materials": [
    {
      "doubleSided": true,
      "name": "material_0",
      "pbrMetallicRoughness": {
        "baseColorFactor": [
          1,
          1,
          1,
          1
        ],
        "metallicFactor": 0,
        "roughnessFactor": 0.59999999999999998
      }
    }
  ],
  "meshes": [
    {
      "primitives": [
        {
          "attributes": {
            "COLOR_0": 2,
            "NORMAL": 1,
            "POSITION": 0
          },
          "indices": 3,
          "material": 0,
          "mode": 4
        }
      ]
    },
    {
      "primitives": [
        {
          "attributes": {
            "COLOR_0": 6,
            "NORMAL": 5,
            "POSITION": 4
          },
          "indices": 7,
          "material": 0,
          "mode": 4
        }
      ]
    },
    {
      "primitives": [
        {
          "attributes": {
            "COLOR_0": 10,
            "NORMAL": 9,
            "POSITION": 8
          },
          "indices": 11,
          "material": 0,
          "mode": 4
        }
      ]
    },
    {
      "primitives": [
        {
          "attributes": {
            "COLOR_0": 14,
            "NORMAL": 13,
            "POSITION": 12
          },
          "indices": 15,
          "material": 0,
          "mode": 4
        }
      ]
    },
    {
      "primitives": [
        {
          "attributes": {
            "COLOR_0": 18,
            "NORMAL": 17,
            "POSITION": 16
          },
          "indices": 19,
          "material": 0,
          "mode": 4
        }
      ]
    },
    {
      "primitives": [
        {
          "attributes": {
            "COLOR_0": 22,
            "NORMAL": 21,
            "POSITION": 20
          },
          "indices": 23,
          "material": 0,
          "mode": 4
        }
      ]
    },
    {
      "primitives": [
        {
          "attributes": {
            "COLOR_0": 26,
            "NORMAL": 25,
            "POSITION": 24
          },
          "indices": 27,
          "material": 0,
          "mode": 4
        }
      ]
    },
    {
      "primitives": [
        {
          "attributes": {
            "COLOR_0": 30,
            "NORMAL": 29,
            "POSITION": 28
          },
          "indices": 31,
          "material": 0,
          "mode": 4
        }
      ]
    },
    {
      "primitives": [
        {
          "attributes": {
            "COLOR_0": 34,
            "NORMAL": 33,
            "POSITION": 32
          },
          "indices": 35,
          "material": 0,
          "mode": 4
        }
      ]
    },
    {
      "primitives": [
        {
          "attributes": {
            "COLOR_0": 38,
            "NORMAL": 37,
            "POSITION": 36
          },
          "indices": 39,
          "material": 0,
          "mode": 4
        }
      ]
    }
  ],
  "nodes": [
    {
      "children": [
        1
      ],
      "name": "RootNode (gltf orientation matrix)",
      "rotation": [
        -0.70710678118654746,
        -0,
        -0,
        0.70710678118654757
      ]
    },
    {
      "children": [
        2
      ],
      "name": "RootNode (model correction matrix)"
    },
    {
      "children": [
        3,
        4,
        5,
        6,
        7,
        8,
        9,
        10,
        11,
        12
      ],
      "name": "Milk Carton(3).obj.cleaner.materialmerger.gles"
    },
    {
      "mesh": 0,
      "name": ""
    },
    {
      "mesh": 1,
      "name": ""
    },
    {
      "mesh": 2,
      "name": ""
    },
    {
      "mesh": 3,
      "name": ""
    },
    {
      "mesh": 4,
      "name": ""
    },
    {
      "mesh": 5,
      "name": ""
    },
    {
      "mesh": 6,
      "name": ""
    },
    {
      "mesh": 7,
      "name": ""
    },
    {
      "mesh": 8,
      "name": ""
    },
    {
      "mesh": 9,
      "name": ""
    }
  ],
  "scene": 0,
  "scenes": [
    {
      "name": "OSG_Scene",
      "nodes": [
        0
      ]
    }
  ]
}

