{
  "accessors": [
    {
      "bufferView": 2,
      "componentType": 5126,
      "count": 65532,
      "max": [
        0.8072569966316223,
        0.9565020203590393,
        3.516098976135254
      ],
      "min": [
        -0.6931480169296265,
        -0.5236989855766296,
        1.5188469886779785
      ],
      "type": "VEC3"
    },
    {
      "bufferView": 2,
      "byteOffset": 786384,
      "componentType": 5126,
      "count": 65532,
      "max": [
        0.9999308586120605,
        0.7555806636810303,
        0.9999978542327881
      ],
      "min": [
        -0.4273620843887329,
        -0.9902949929237366,
        -0.794655978679657
      ],
      "type": "VEC3"
    },
    {
      "bufferView": 1,
      "componentType": 5126,
      "count": 65532,
      "max": [
        0.21623100340366364,
        0.49921900033950806
      ],
      "min": [
        0.0008200000156648457,
        0.21704499423503876
      ],
      "type": "VEC2"
    },
    {
      "bufferView": 0,
      "componentType": 5125,
      "count": 65532,
      "type": "SCALAR"
    },
    {
      "bufferView": 2,
      "byteOffset": 1572768,
      "componentType": 5126,
      "count": 65532,
      "max": [
        0.9511409997940063,
        1.0057389736175537,
        3.512892007827759
      ],
      "min": [
        -0.9448890089988708,
        -1.0057389736175537,
        0.006742000114172697
      ],
      "type": "VEC3"
    },
    {
      "bufferView": 2,
      "byteOffset": 2359152,
      "componentType": 5126,
      "count": 65532,
      "max": [
        0.9999657869338989,
        0.9967396259307861,
        0.9999964833259583
      ],
      "min": [
        -0.9987171292304993,
        -0.9999827742576599,
        -0.9971122145652771
      ],
      "type": "VEC3"
    },
    {
      "bufferView": 1,
      "byteOffset": 524256,
      "componentType": 5126,
      "count": 65532,
      "max": [
        0.9992619752883911,
        0.9992139935493469
      ],
      "min": [
        0.0008399999933317304,
        0.41205498576164246
      ],
      "type": "VEC2"
    },
    {
      "bufferView": 0,
      "byteOffset": 262128,
      "componentType": 5125,
      "count": 65532,
      "type": "SCALAR"
    },
    {
      "bufferView": 2,
      "byteOffset": 3145536,
      "componentType": 5126,
      "count": 65532,
      "max": [
        0.8483930230140686,
        0.9554610252380371,
        3.430546998977661
      ],
      "min": [
        -0.9397609829902649,
        -0.9932069778442383,
        0.047214001417160034
      ],
      "type": "VEC3"
    },
    {
      "bufferView": 2,
      "byteOffset": 3931920,
      "componentType": 5126,
      "count": 65532,
      "max": [
        0.9981613755226135,
        0.9999932646751404,
        0.9987320899963379
      ],
      "min": [
        -0.8856602311134338,
        -0.9946824908256531,
        -0.823660135269165
      ],
      "type": "VEC3"
    },
    {
      "bufferView": 1,
      "byteOffset": 1048512,
      "componentType": 5126,
      "count": 65532,
      "max": [
        0.46752700209617615,
        0.9992219805717468
      ],
      "min": [
        0.0023449999280273914,
        0.5516870021820068
      ],
      "type": "VEC2"
    },
    {
      "bufferView": 0,
      "byteOffset": 524256,
      "componentType": 5125,
      "count": 65532,
      "type": "SCALAR"
    },
    {
      "bufferView": 2,
      "byteOffset": 4718304,
      "componentType": 5126,
      "count": 65533,
      "max": [
        -0.026548000052571297,
        -0.23836199939250946,
        3.2790310382843018
      ],
      "min": [
        -0.9435790181159973,
        -0.9636819958686829,
        0.9491900205612183
      ],
      "type": "VEC3"
    },
    {
      "bufferView": 2,
      "byteOffset": 5504700,
      "componentType": 5126,
      "count": 65533,
      "max": [
        0.30652502179145813,
        0.022341011092066765,
        0.8796022534370422
      ],
      "min": [
        -0.9899789094924927,
        -0.9999998807907104,
        -0.9216921329498291
      ],
      "type": "VEC3"
    },
    {
      "bufferView": 1,
      "byteOffset": 1572768,
      "componentType": 5126,
      "count": 65533,
      "max": [
        0.21319499611854553,
        0.9960960149765015
      ],
      "min": [
        0.0008089999901130795,
        0.5913310050964355
      ],
      "type": "VEC2"
    },
    {
      "bufferView": 0,
      "byteOffset": 786384,
      "componentType": 5125,
      "count": 65535,
      "type": "SCALAR"
    },
    {
      "bufferView": 2,
      "byteOffset": 6291096,
      "componentType": 5126,
      "count": 65532,
      "max": [
        0.7169479727745056,
        0.9977449774742126,
        3.516098976135254
      ],
      "min": [
        -0.9056010246276855,
        -1.0021419525146484,
        0.003984000068157911
      ],
      "type": "VEC3"
    },
    {
      "bufferView": 2,
      "byteOffset": 7077480,
      "componentType": 5126,
      "count": 65532,
      "max": [
        0.9991824626922607,
        0.9994397759437561,
        0.9999724626541138
      ],
      "min": [
        -0.9999943375587463,
        -0.9998475313186646,
        -0.8972193002700806
      ],
      "type": "VEC3"
    },
    {
      "bufferView": 1,
      "byteOffset": 2097032,
      "componentType": 5126,
      "count": 65532,
      "max": [
        0.46190300583839417,
        0.9987829923629761
      ],
      "min": [
        0.0009389999904669821,
        0.5009920001029968
      ],
      "type": "VEC2"
    },
    {
      "bufferView": 0,
      "byteOffset": 1048524,
      "componentType": 5125,
      "count": 65532,
      "type": "SCALAR"
    },
    {
      "bufferView": 2,
      "byteOffset": 7863864,
      "componentType": 5126,
      "count": 65532,
      "max": [
        0.9420080184936523,
        1.0057389736175537,
        3.5066850185394287
      ],
      "min": [
        -0.9511409997940063,
        -1.0057389736175537,
        0.0
      ],
      "type": "VEC3"
    },
    {
      "bufferView": 2,
      "byteOffset": 8650248,
      "componentType": 5126,
      "count": 65532,
      "max": [
        0.9999212622642517,
        0.999514102935791,
        0.9999927878379822
      ],
      "min": [
        -0.9999614953994751,
        -0.9999383687973022,
        -1.0
      ],
      "type": "VEC3"
    },
    {
      "bufferView": 1,
      "byteOffset": 2621288,
      "componentType": 5126,
      "count": 65532,
      "max": [
        0.8549720048904419,
        0.999222993850708
      ],
      "min": [
        0.08279500156641006,
        0.5007320046424866
      ],
      "type": "VEC2"
    },
    {
      "bufferView": 0,
      "byteOffset": 1310652,
      "componentType": 5125,
      "count": 65532,
      "type": "SCALAR"
    },
    {
      "bufferView": 2,
      "byteOffset": 9436632,
      "componentType": 5126,
      "count": 65533,
      "max": [
        0.9511409997940063,
        0.4560370147228241,
        3.4118568897247314
      ],
      "min": [
        -0.6933140158653259,
        -0.9083570241928101,
        0.04491199925541878
      ],
      "type": "VEC3"
    },
    {
      "bufferView": 2,
      "byteOffset": 10223028,
      "componentType": 5126,
      "count": 65533,
      "max": [
        0.999505341053009,
        0.4785492420196533,
        0.9961017370223999
      ],
      "min": [
        -0.7513521313667297,
        -0.9999847412109375,
        -0.9066042900085449
      ],
      "type": "VEC3"
    },
    {
      "bufferView": 1,
      "byteOffset": 3145544,
      "componentType": 5126,
      "count": 65533,
      "max": [
        0.9575650095939636,
        0.9976490139961243
      ],
      "min": [
        0.6881279945373535,
        0.6351000070571899
      ],
      "type": "VEC2"
    },
    {
      "bufferView": 0,
      "byteOffset": 1572780,
      "componentType": 5125,
      "count": 65535,
      "type": "SCALAR"
    },
    {
      "bufferView": 2,
      "byteOffset": 11009424,
      "componentType": 5126,
      "count": 19215,
      "max": [
        0.9216669797897339,
        0.9027040004730225,
        2.138300895690918
      ],
      "min": [
        0.1377590000629425,
        -0.5342069864273071,
        0.03306800127029419
      ],
      "type": "VEC3"
    },
    {
      "bufferView": 2,
      "byteOffset": 11240004,
      "componentType": 5126,
      "count": 19215,
      "max": [
        0.9999633431434631,
        0.845453143119812,
        0.8946475386619568
      ],
      "min": [
        0.01601000502705574,
        -0.8466469049453735,
        -0.6152717471122742
      ],
      "type": "VEC3"
    },
    {
      "bufferView": 1,
      "byteOffset": 3669808,
      "componentType": 5126,
      "count": 19215,
      "max": [
        0.9719280004501343,
        0.9990320205688477
      ],
      "min": [
        0.8567209839820862,
        0.605476975440979
      ],
      "type": "VEC2"
    },
    {
      "bufferView": 0,
      "byteOffset": 1834920,
      "componentType": 5125,
      "count": 19215,
      "type": "SCALAR"
    }
  ],
  "asset": {
    "extras": {
      "author": "satvinder (https://sketchfab.com/satvinder)",
      "license": "CC-BY-SA-4.0 (http://creativecommons.org/licenses/by-sa/4.0/)",
      "source": "https://sketchfab.com/3d-models/juice-box-2af0c367f96e4cfd9b75f72adc356c19",
      "title": "Juice box"
    },
    "generator": "Sketchfab-12.6.0",
    "version": "2.0"
  },
  "bufferViews": [
    {
      "buffer": 0,
      "byteLength": 1911780,
      "name": "floatBufferViews",
      "target": 34963
    },
    {
      "buffer": 0,
      "byteLength": 3823528,
      "byteOffset": 1911780,
      "byteStride": 8,
      "name": "floatBufferViews",
      "target": 34962
    },
    {
      "buffer": 0,
      "byteLength": 11470584,
      "byteOffset": 5735308,
      "byteStride": 12,
      "name": "floatBufferViews",
      "target": 34962
    }
  ],
  "buffers": [
    {
      "byteLength": 17205892,
      "uri": "scene.bin"
    }
  ],
  "extensionsUsed": [
    "KHR_materials_unlit"
  ],
  "images": [
    {
      "uri": "textures/material_baseColor.jpeg"
    }
  ],
  "materials": [
    {
      "doubleSided": true,
      "extensions": {
        "KHR_materials_unlit": {}
      },
      "name": "material",
      "pbrMetallicRoughness": {
        "baseColorTexture": {
          "index": 0
        },
        "metallicFactor": 0.0
      }
    }
  ],
  "meshes": [
    {
      "name": "Object_0",
      "primitives": [
        {
          "attributes": {
            "NORMAL": 1,
            "POSITION": 0,
            "TEXCOORD_0": 2
          },
          "indices": 3,
          "material": 0,
          "mode": 4
        }
      ]
    },
    {
      "name": "Object_1",
      "primitives": [
        {
          "attributes": {
            "NORMAL": 5,
            "POSITION": 4,
            "TEXCOORD_0": 6
          },
          "indices": 7,
          "material": 0,
          "mode": 4
        }
      ]
    },
    {
      "name": "Object_2",
      "primitives": [
        {
          "attributes": {
            "NORMAL": 9,
            "POSITION": 8,
            "TEXCOORD_0": 10
          },
          "indices": 11,
          "material": 0,
          "mode": 4
        }
      ]
    },
    {
      "name": "Object_3",
      "primitives": [
        {
          "attributes": {
            "NORMAL": 13,
            "POSITION": 12,
            "TEXCOORD_0": 14
          },
          "indices": 15,
          "material": 0,
          "mode": 4
        }
      ]
    },
    {
      "name": "Object_4",
      "primitives": [
        {
          "attributes": {
            "NORMAL": 17,
            "POSITION": 16,
            "TEXCOORD_0": 18
          },
          "indices": 19,
          "material": 0,
          "mode": 4
        }
      ]
    },
    {
      "name": "Object_5",
      "primitives": [
        {
          "attributes": {
            "NORMAL": 21,
            "POSITION": 20,
            "TEXCOORD_0": 22
          },
          "indices": 23,
          "material": 0,
          "mode": 4
        }
      ]
    },
    {
      "name": "Object_6",
      "primitives": [
        {
          "attributes": {
            "NORMAL": 25,
            "POSITION": 24,
            "TEXCOORD_0": 26
          },
          "indices": 27,
          "material": 0,
          "mode": 4
        }
      ]
    },
    {
      "name": "Object_7",
      "primitives": [
        {
          "attributes": {
            "NORMAL": 29,
            "POSITION": 28,
            "TEXCOORD_0": 30
          },
          "indices": 31,
          "material": 0,
          "mode": 4
        }
      ]
    }
  ],
  "nodes": [
    {
      "children": [
        1
      ],
      "matrix": [
        1.0,
        0.0,
        0.0,
        0.0,
        0.0,
        2.220446049250313e-16,
        -1.0,
        0.0,
        0.0,
        1.0,
        2.220446049250313e-16,
        0.0,
        0.0,
        0.0,
        0.0,
        1.0
      ],
      "name": "Sketchfab_model"
    },
    {
      "children": [
        2,
        3,
        4,
        5,
        6,
        7,
        8,
        9
      ],
      "name": "20211120_021348.obj.cleaner.materialmerger.gles"
    },
    {
      "mesh": 0,
      "name": "Object_2"
    },
    {
      "mesh": 1,
      "name": "Object_3"
    },
    {
      "mesh": 2,
      "name": "Object_4"
    },
    {
      "mesh": 3,
      "name": "Object_5"
    },
    {
      "mesh": 4,
      "name": "Object_6"
    },
    {
      "mesh": 5,
      "name": "Object_7"
    },
    {
      "mesh": 6,
      "name": "Object_8"
    },
    {
      "mesh": 7,
      "name": "Object_9"
    }
  ],
  "samplers": [
    {
      "magFilter": 9729,
      "minFilter": 9987,
      "wrapS": 10497,
      "wrapT": 10497
    }
  ],
  "scene": 0,
  "scenes": [
    {
      "name": "Sketchfab_Scene",
      "nodes": [
        0
      ]
    }
  ],
  "textures": [
    {
      "sampler": 0,
      "source": 0
    }
  ]
}
